<svg width="9" height="9" viewBox="0 0 9 9" fill="none" xmlns="http://www.w3.org/2000/svg">
<path d="M3.92436 0.436698C4.10555 -0.145567 4.89445 -0.145566 5.07564 0.436699L5.72301 2.5171C5.80404 2.7775 6.03643 2.9538 6.29865 2.9538H8.39358C8.97991 2.9538 9.22369 3.73723 8.74934 4.09709L7.05451 5.38285C6.84237 5.54378 6.7536 5.82904 6.83463 6.08944L7.482 8.16984C7.66319 8.75211 7.02495 9.23629 6.5506 8.87643L4.85576 7.59068C4.64363 7.42974 4.35637 7.42974 4.14424 7.59068L2.4494 8.87643C1.97505 9.23629 1.33681 8.7521 1.518 8.16984L2.16537 6.08944C2.2464 5.82904 2.15763 5.54378 1.94549 5.38285L0.250658 4.09709C-0.223694 3.73723 0.0200913 2.9538 0.606422 2.9538H2.70135C2.96357 2.9538 3.19596 2.7775 3.27699 2.5171L3.92436 0.436698Z" fill="#F2C03F"/>
</svg>
