<svg width="95" height="20" viewBox="0 0 95 20" fill="none" xmlns="http://www.w3.org/2000/svg">
<path d="M0 10C0 4.47715 4.47715 0 10 0C15.5228 0 20 4.47715 20 10C20 15.5228 15.5228 20 10 20C4.47715 20 0 15.5228 0 10Z" fill="white"/>
<path d="M14.2903 13.7194H5.70752V15.4546H14.2903V13.7194Z" fill="#E62070"/>
<path d="M13.5945 4.54546L12.2275 9.18528L10.8501 4.55893L9.14903 4.55556L7.74715 9.18528L6.40319 4.54546H4.54541L6.73436 12.1047H8.72728L9.99179 7.92832L11.2348 12.1047H13.2277L15.4545 4.54546H13.5945Z" fill="#121619"/>
<path d="M25.9539 13.5V6.5H27.9339V13.5H25.9539ZM29.3426 13.5V6.5H30.9726L34.8326 11.16H34.0626V6.5H36.0026V13.5H34.3726L30.5126 8.84H31.2826V13.5H29.3426ZM39.8592 13.64C39.2859 13.64 38.7326 13.57 38.1992 13.43C37.6726 13.2833 37.2426 13.0967 36.9092 12.87L37.5592 11.41C37.8726 11.61 38.2326 11.7767 38.6392 11.91C39.0526 12.0367 39.4626 12.1 39.8692 12.1C40.1426 12.1 40.3626 12.0767 40.5292 12.03C40.6959 11.9767 40.8159 11.91 40.8892 11.83C40.9692 11.7433 41.0092 11.6433 41.0092 11.53C41.0092 11.37 40.9359 11.2433 40.7892 11.15C40.6426 11.0567 40.4526 10.98 40.2192 10.92C39.9859 10.86 39.7259 10.8 39.4392 10.74C39.1592 10.68 38.8759 10.6033 38.5892 10.51C38.3092 10.4167 38.0526 10.2967 37.8192 10.15C37.5859 9.99667 37.3959 9.8 37.2492 9.56C37.1026 9.31333 37.0292 9.00333 37.0292 8.63C37.0292 8.21 37.1426 7.83 37.3692 7.49C37.6026 7.15 37.9492 6.87667 38.4092 6.67C38.8692 6.46333 39.4426 6.36 40.1292 6.36C40.5892 6.36 41.0392 6.41333 41.4792 6.52C41.9259 6.62 42.3226 6.77 42.6692 6.97L42.0592 8.44C41.7259 8.26 41.3959 8.12667 41.0692 8.04C40.7426 7.94667 40.4259 7.9 40.1192 7.9C39.8459 7.9 39.6259 7.93 39.4592 7.99C39.2926 8.04333 39.1726 8.11667 39.0992 8.21C39.0259 8.30333 38.9892 8.41 38.9892 8.53C38.9892 8.68333 39.0592 8.80667 39.1992 8.9C39.3459 8.98667 39.5359 9.06 39.7692 9.12C40.0092 9.17333 40.2692 9.23 40.5492 9.29C40.8359 9.35 41.1192 9.42667 41.3992 9.52C41.6859 9.60667 41.9459 9.72667 42.1792 9.88C42.4126 10.0267 42.5992 10.2233 42.7392 10.47C42.8859 10.71 42.9592 11.0133 42.9592 11.38C42.9592 11.7867 42.8426 12.1633 42.6092 12.51C42.3826 12.85 42.0392 13.1233 41.5792 13.33C41.1259 13.5367 40.5526 13.64 39.8592 13.64ZM43.8738 13.5V6.5H47.0738C47.7138 6.5 48.2638 6.60333 48.7238 6.81C49.1905 7.01667 49.5505 7.31667 49.8038 7.71C50.0572 8.09667 50.1838 8.55667 50.1838 9.09C50.1838 9.61667 50.0572 10.0733 49.8038 10.46C49.5505 10.8467 49.1905 11.1467 48.7238 11.36C48.2638 11.5667 47.7138 11.67 47.0738 11.67H44.9738L45.8538 10.81V13.5H43.8738ZM45.8538 11.02L44.9738 10.11H46.9538C47.3672 10.11 47.6738 10.02 47.8738 9.84C48.0805 9.66 48.1838 9.41 48.1838 9.09C48.1838 8.76333 48.0805 8.51 47.8738 8.33C47.6738 8.15 47.3672 8.06 46.9538 8.06H44.9738L45.8538 7.15V11.02ZM51.1492 13.5V6.5H53.1292V13.5H51.1492ZM54.5379 13.5V6.5H57.7379C58.3779 6.5 58.9279 6.60333 59.3879 6.81C59.8546 7.01667 60.2146 7.31667 60.4679 7.71C60.7212 8.09667 60.8479 8.55667 60.8479 9.09C60.8479 9.61667 60.7212 10.0733 60.4679 10.46C60.2146 10.84 59.8546 11.1333 59.3879 11.34C58.9279 11.54 58.3779 11.64 57.7379 11.64H55.6379L56.5179 10.81V13.5H54.5379ZM58.8679 13.5L57.1279 10.95H59.2379L60.9879 13.5H58.8679ZM56.5179 11.02L55.6379 10.11H57.6179C58.0312 10.11 58.3379 10.02 58.5379 9.84C58.7446 9.66 58.8479 9.41 58.8479 9.09C58.8479 8.76333 58.7446 8.51 58.5379 8.33C58.3379 8.15 58.0312 8.06 57.6179 8.06H55.6379L56.5179 7.15V11.02ZM61.1002 13.5L64.1902 6.5H66.1402L69.2402 13.5H67.1802L64.7602 7.47H65.5402L63.1202 13.5H61.1002ZM62.7902 12.14L63.3002 10.68H66.7202L67.2302 12.14H62.7902ZM70.94 13.5V8.07H68.79V6.5H75.06V8.07H72.92V13.5H70.94ZM75.7977 13.5V6.5H77.7777V13.5H75.7977ZM82.7163 13.64C82.1563 13.64 81.6397 13.55 81.1663 13.37C80.693 13.19 80.2797 12.9367 79.9263 12.61C79.5797 12.2767 79.3097 11.89 79.1163 11.45C78.923 11.01 78.8263 10.5267 78.8263 10C78.8263 9.47333 78.923 8.99 79.1163 8.55C79.3097 8.11 79.5797 7.72667 79.9263 7.4C80.2797 7.06667 80.693 6.81 81.1663 6.63C81.6397 6.45 82.1563 6.36 82.7163 6.36C83.283 6.36 83.7997 6.45 84.2663 6.63C84.7397 6.81 85.1497 7.06667 85.4963 7.4C85.843 7.72667 86.113 8.11 86.3063 8.55C86.5063 8.99 86.6063 9.47333 86.6063 10C86.6063 10.5267 86.5063 11.0133 86.3063 11.46C86.113 11.9 85.843 12.2833 85.4963 12.61C85.1497 12.9367 84.7397 13.19 84.2663 13.37C83.7997 13.55 83.283 13.64 82.7163 13.64ZM82.7163 12C82.983 12 83.2297 11.9533 83.4563 11.86C83.6897 11.7667 83.8897 11.6333 84.0563 11.46C84.2297 11.28 84.363 11.0667 84.4563 10.82C84.5563 10.5733 84.6063 10.3 84.6063 10C84.6063 9.69333 84.5563 9.42 84.4563 9.18C84.363 8.93333 84.2297 8.72333 84.0563 8.55C83.8897 8.37 83.6897 8.23333 83.4563 8.14C83.2297 8.04667 82.983 8 82.7163 8C82.4497 8 82.1997 8.04667 81.9663 8.14C81.7397 8.23333 81.5397 8.37 81.3663 8.55C81.1997 8.72333 81.0663 8.93333 80.9663 9.18C80.873 9.42 80.8263 9.69333 80.8263 10C80.8263 10.3 80.873 10.5733 80.9663 10.82C81.0663 11.0667 81.1997 11.28 81.3663 11.46C81.5397 11.6333 81.7397 11.7667 81.9663 11.86C82.1997 11.9533 82.4497 12 82.7163 12ZM87.6434 13.5V6.5H89.2734L93.1334 11.16H92.3634V6.5H94.3034V13.5H92.6734L88.8134 8.84H89.5834V13.5H87.6434Z" fill="white"/>
</svg>
