<svg width="22" height="22" viewBox="0 0 22 22" fill="none" xmlns="http://www.w3.org/2000/svg">
<path fill-rule="evenodd" clip-rule="evenodd" d="M10.6688 0.256714C11.0794 0.626173 11.1126 1.25846 10.7432 1.66897L2.34325 11.0022C2.42263 11.091 2.50909 11.1876 2.60212 11.2915C3.14053 11.8932 3.89908 12.7401 4.77963 13.7212C6.54099 15.6837 8.78934 18.1818 10.7398 20.3273C11.1113 20.736 11.0812 21.3684 10.6726 21.74C10.2639 22.1115 9.63145 22.0813 9.25994 21.6727C7.30518 19.5224 5.05352 17.0206 3.2912 15.057C2.4099 14.0751 1.65069 13.2275 1.11178 12.6253C0.842329 12.3242 0.627941 12.0845 0.480895 11.92L0.254293 11.6664C-0.0855695 11.2859 -0.0847193 10.7103 0.256585 10.331L9.25659 0.331044C9.62604 -0.0794662 10.2583 -0.112745 10.6688 0.256714Z" fill="#586066"/>
</svg>
