<svg width="112" height="24" viewBox="0 0 112 24" fill="none" xmlns="http://www.w3.org/2000/svg">
<rect width="24" height="24" rx="12" fill="#121619"/>
<path d="M17.1485 16.4633H6.84912V18.5455H17.1485V16.4633Z" fill="#E62070"/>
<path d="M16.3135 5.45459L14.6731 11.0224L13.0203 5.47076L10.9789 5.46671L9.29668 11.0224L7.68393 5.45459H5.45459L8.08133 14.5257H10.4728L11.9902 9.51403L13.4818 14.5257H15.8733L18.5455 5.45459H16.3135Z" fill="white"/>
<path d="M35.59 17.196C34.806 17.196 34.0826 17.07 33.42 16.818C32.7573 16.566 32.1786 16.2113 31.684 15.754C31.1986 15.2873 30.8206 14.746 30.55 14.13C30.2793 13.514 30.144 12.8373 30.144 12.1C30.144 11.3627 30.2793 10.686 30.55 10.07C30.8206 9.454 31.1986 8.91733 31.684 8.46C32.1786 7.99333 32.7573 7.634 33.42 7.382C34.0826 7.13 34.806 7.004 35.59 7.004C36.3833 7.004 37.1066 7.13 37.76 7.382C38.4226 7.634 38.9966 7.99333 39.482 8.46C39.9673 8.91733 40.3453 9.454 40.616 10.07C40.896 10.686 41.036 11.3627 41.036 12.1C41.036 12.8373 40.896 13.5187 40.616 14.144C40.3453 14.76 39.9673 15.2967 39.482 15.754C38.9966 16.2113 38.4226 16.566 37.76 16.818C37.1066 17.07 36.3833 17.196 35.59 17.196ZM35.59 14.9C35.9633 14.9 36.3086 14.8347 36.626 14.704C36.9526 14.5733 37.2326 14.3867 37.466 14.144C37.7086 13.892 37.8953 13.5933 38.026 13.248C38.166 12.9027 38.236 12.52 38.236 12.1C38.236 11.6707 38.166 11.288 38.026 10.952C37.8953 10.6067 37.7086 10.3127 37.466 10.07C37.2326 9.818 36.9526 9.62667 36.626 9.496C36.3086 9.36533 35.9633 9.3 35.59 9.3C35.2166 9.3 34.8666 9.36533 34.54 9.496C34.2226 9.62667 33.9426 9.818 33.7 10.07C33.4666 10.3127 33.28 10.6067 33.14 10.952C33.0093 11.288 32.944 11.6707 32.944 12.1C32.944 12.52 33.0093 12.9027 33.14 13.248C33.28 13.5933 33.4666 13.892 33.7 14.144C33.9426 14.3867 34.2226 14.5733 34.54 14.704C34.8666 14.8347 35.2166 14.9 35.59 14.9ZM42.4878 17V7.2H46.9678C47.8638 7.2 48.6338 7.34467 49.2778 7.634C49.9311 7.92333 50.4351 8.34333 50.7898 8.894C51.1445 9.43533 51.3218 10.0793 51.3218 10.826C51.3218 11.5633 51.1445 12.2027 50.7898 12.744C50.4351 13.276 49.9311 13.6867 49.2778 13.976C48.6338 14.256 47.8638 14.396 46.9678 14.396H44.0278L45.2598 13.234V17H42.4878ZM48.5498 17L46.1138 13.43H49.0678L51.5178 17H48.5498ZM45.2598 13.528L44.0278 12.254H46.7998C47.3785 12.254 47.8078 12.128 48.0878 11.876C48.3771 11.624 48.5218 11.274 48.5218 10.826C48.5218 10.3687 48.3771 10.014 48.0878 9.762C47.8078 9.51 47.3785 9.384 46.7998 9.384H44.0278L45.2598 8.11V13.528ZM52.8511 17V7.2H55.6231V17H52.8511ZM62.4952 17.196C61.7206 17.196 61.0019 17.0747 60.3392 16.832C59.6766 16.58 59.1026 16.2253 58.6172 15.768C58.1412 15.3107 57.7679 14.774 57.4972 14.158C57.2266 13.5327 57.0912 12.8467 57.0912 12.1C57.0912 11.3533 57.2266 10.672 57.4972 10.056C57.7679 9.43067 58.1459 8.88933 58.6312 8.432C59.1166 7.97467 59.6906 7.62467 60.3532 7.382C61.0252 7.13 61.7579 7.004 62.5512 7.004C63.4752 7.004 64.3012 7.158 65.0292 7.466C65.7572 7.774 66.3592 8.21733 66.8352 8.796L65.0712 10.392C64.7352 10.028 64.3712 9.75733 63.9792 9.58C63.5966 9.39333 63.1672 9.3 62.6912 9.3C62.2712 9.3 61.8886 9.36533 61.5432 9.496C61.1979 9.62667 60.9039 9.818 60.6612 10.07C60.4186 10.3127 60.2272 10.6067 60.0872 10.952C59.9566 11.288 59.8912 11.6707 59.8912 12.1C59.8912 12.5107 59.9566 12.8887 60.0872 13.234C60.2272 13.5793 60.4186 13.878 60.6612 14.13C60.9039 14.3727 61.1932 14.564 61.5292 14.704C61.8746 14.8347 62.2526 14.9 62.6632 14.9C63.0739 14.9 63.4752 14.8347 63.8672 14.704C64.2592 14.564 64.6559 14.3307 65.0572 14.004L66.6112 15.95C66.0512 16.3513 65.4026 16.6593 64.6652 16.874C63.9279 17.0887 63.2046 17.196 62.4952 17.196ZM64.1612 15.586V11.89H66.6112V15.95L64.1612 15.586ZM68.3687 17V7.2H71.1407V17H68.3687ZM73.1128 17V7.2H75.3948L80.7988 13.724H79.7208V7.2H82.4368V17H80.1548L74.7508 10.476H75.8288V17H73.1128ZM83.2161 17L87.5421 7.2H90.2721L94.6121 17H91.7281L88.3401 8.558H89.4321L86.0441 17H83.2161ZM85.5821 15.096L86.2961 13.052H91.0841L91.7981 15.096H85.5821ZM95.398 17V7.2H98.17V14.802H102.846V17H95.398ZM107.36 17.196C106.557 17.196 105.782 17.098 105.036 16.902C104.298 16.6967 103.696 16.4353 103.23 16.118L104.14 14.074C104.578 14.354 105.082 14.5873 105.652 14.774C106.23 14.9513 106.804 15.04 107.374 15.04C107.756 15.04 108.064 15.0073 108.298 14.942C108.531 14.8673 108.699 14.774 108.802 14.662C108.914 14.5407 108.97 14.4007 108.97 14.242C108.97 14.018 108.867 13.8407 108.662 13.71C108.456 13.5793 108.19 13.472 107.864 13.388C107.537 13.304 107.173 13.22 106.772 13.136C106.38 13.052 105.983 12.9447 105.582 12.814C105.19 12.6833 104.83 12.5153 104.504 12.31C104.177 12.0953 103.911 11.82 103.706 11.484C103.5 11.1387 103.398 10.7047 103.398 10.182C103.398 9.594 103.556 9.062 103.874 8.586C104.2 8.11 104.686 7.72733 105.33 7.438C105.974 7.14867 106.776 7.004 107.738 7.004C108.382 7.004 109.012 7.07867 109.628 7.228C110.253 7.368 110.808 7.578 111.294 7.858L110.44 9.916C109.973 9.664 109.511 9.47733 109.054 9.356C108.596 9.22533 108.153 9.16 107.724 9.16C107.341 9.16 107.033 9.202 106.8 9.286C106.566 9.36067 106.398 9.46333 106.296 9.594C106.193 9.72467 106.142 9.874 106.142 10.042C106.142 10.2567 106.24 10.4293 106.436 10.56C106.641 10.6813 106.907 10.784 107.234 10.868C107.57 10.9427 107.934 11.022 108.326 11.106C108.727 11.19 109.124 11.2973 109.516 11.428C109.917 11.5493 110.281 11.7173 110.608 11.932C110.934 12.1373 111.196 12.4127 111.392 12.758C111.597 13.094 111.7 13.5187 111.7 14.032C111.7 14.6013 111.536 15.1287 111.21 15.614C110.892 16.09 110.412 16.4727 109.768 16.762C109.133 17.0513 108.33 17.196 107.36 17.196Z" fill="white"/>
</svg>
