<svg width="10" height="11" viewBox="0 0 10 11" fill="none" xmlns="http://www.w3.org/2000/svg">
<g clip-path="url(#clip0_17361_38329)">
<path d="M5.52592 4.84296L6.06241 5.92481C6.13557 6.07541 6.33068 6.21984 6.4953 6.24748L7.46767 6.41041C8.08951 6.51488 8.23584 6.9698 7.78777 7.41848L7.03179 8.1807C6.90375 8.30983 6.83363 8.55873 6.87326 8.73704L7.08971 9.68054C7.26043 10.4274 6.86716 10.7163 6.21179 10.326L5.3004 9.78196C5.13577 9.68366 4.86445 9.68366 4.69685 9.78196L3.78539 10.326C3.13308 10.7163 2.7368 10.4243 2.9075 9.68054L3.12393 8.73704C3.16356 8.55873 3.09345 8.30983 2.96542 8.1807L2.20946 7.41848C1.76441 6.9698 1.90768 6.51488 2.52953 6.41041L3.50192 6.24748C3.66344 6.21984 3.85855 6.07541 3.93172 5.92481L4.4682 4.84296C4.76086 4.25594 5.23638 4.25594 5.52592 4.84296Z" fill="#7C17FF"/>
<path d="M7.25928 0.504547C7.60719 0.504547 8.06729 0.437818 8.30518 0.799469C8.4352 0.997811 8.437 2.69144 8.43701 2.72427C8.43701 2.72427 8.43673 3.46399 8.34814 3.67154C8.19682 4.02584 7.85869 4.1799 7.56885 4.34732L6.64307 4.8815L6.49756 4.58755C6.26652 4.12034 5.78316 3.53482 4.99756 3.53482C4.21323 3.53511 3.7299 4.11979 3.49756 4.5856L3.35107 4.87857L2.43115 4.34732C2.14131 4.1799 1.80319 4.02584 1.65186 3.67154C1.56328 3.46399 1.56299 2.72427 1.56299 2.72427C1.563 2.69144 1.56481 0.99776 1.69482 0.799469C1.93273 0.437818 2.39284 0.504547 2.74072 0.504547H7.25928Z" fill="#7C17FF"/>
</g>
<defs>
<clipPath id="clip0_17361_38329">
<rect width="10" height="10" fill="white" transform="translate(0 0.5)"/>
</clipPath>
</defs>
</svg>
