<svg width="14" height="14" viewBox="0 0 14 14" fill="none" xmlns="http://www.w3.org/2000/svg">
<path fill-rule="evenodd" clip-rule="evenodd" d="M14 7C14 10.866 10.866 14 7 14C3.13401 14 0 10.866 0 7C0 3.13401 3.13401 0 7 0C10.866 0 14 3.13401 14 7ZM6.4 3.1C6.4 2.76863 6.66863 2.5 7 2.5C7.33137 2.5 7.6 2.76863 7.6 3.1V7.06793L9.55448 8.19635C9.84145 8.36204 9.93978 8.72899 9.77409 9.01597C9.60841 9.30294 9.24145 9.40127 8.95448 9.23558L6.89262 8.04517C6.84883 8.01989 6.80944 7.98992 6.7747 7.95627C6.55497 7.86718 6.4 7.65169 6.4 7.4V3.1Z" fill="#A1ABB3"/>
</svg>
