<svg width="84" height="20" viewBox="0 0 84 20" fill="none" xmlns="http://www.w3.org/2000/svg">
<path d="M0 10C0 4.47715 4.47715 0 10 0C15.5228 0 20 4.47715 20 10C20 15.5228 15.5228 20 10 20C4.47715 20 0 15.5228 0 10Z" fill="#121619"/>
<path d="M14.2903 13.7194H5.70752V15.4546H14.2903V13.7194Z" fill="#E62070"/>
<path d="M13.5945 4.54546L12.2275 9.18528L10.8501 4.55893L9.14903 4.55556L7.74715 9.18528L6.40319 4.54546H4.54541L6.73436 12.1047H8.72728L9.99179 7.92832L11.2348 12.1047H13.2277L15.4545 4.54546H13.5945Z" fill="white"/>
<path d="M29.4214 13.64C28.8614 13.64 28.3447 13.55 27.8714 13.37C27.3981 13.19 26.9847 12.9367 26.6314 12.61C26.2847 12.2767 26.0147 11.89 25.8214 11.45C25.6281 11.01 25.5314 10.5267 25.5314 10C25.5314 9.47333 25.6281 8.99 25.8214 8.55C26.0147 8.11 26.2847 7.72667 26.6314 7.4C26.9847 7.06667 27.3981 6.81 27.8714 6.63C28.3447 6.45 28.8614 6.36 29.4214 6.36C29.9881 6.36 30.5047 6.45 30.9714 6.63C31.4447 6.81 31.8547 7.06667 32.2014 7.4C32.5481 7.72667 32.8181 8.11 33.0114 8.55C33.2114 8.99 33.3114 9.47333 33.3114 10C33.3114 10.5267 33.2114 11.0133 33.0114 11.46C32.8181 11.9 32.5481 12.2833 32.2014 12.61C31.8547 12.9367 31.4447 13.19 30.9714 13.37C30.5047 13.55 29.9881 13.64 29.4214 13.64ZM29.4214 12C29.6881 12 29.9347 11.9533 30.1614 11.86C30.3947 11.7667 30.5947 11.6333 30.7614 11.46C30.9347 11.28 31.0681 11.0667 31.1614 10.82C31.2614 10.5733 31.3114 10.3 31.3114 10C31.3114 9.69333 31.2614 9.42 31.1614 9.18C31.0681 8.93333 30.9347 8.72333 30.7614 8.55C30.5947 8.37 30.3947 8.23333 30.1614 8.14C29.9347 8.04667 29.6881 8 29.4214 8C29.1547 8 28.9047 8.04667 28.6714 8.14C28.4447 8.23333 28.2447 8.37 28.0714 8.55C27.9047 8.72333 27.7714 8.93333 27.6714 9.18C27.5781 9.42 27.5314 9.69333 27.5314 10C27.5314 10.3 27.5781 10.5733 27.6714 10.82C27.7714 11.0667 27.9047 11.28 28.0714 11.46C28.2447 11.6333 28.4447 11.7667 28.6714 11.86C28.9047 11.9533 29.1547 12 29.4214 12ZM34.3484 13.5V6.5H37.5484C38.1884 6.5 38.7384 6.60333 39.1984 6.81C39.6651 7.01667 40.0251 7.31667 40.2784 7.71C40.5318 8.09667 40.6584 8.55667 40.6584 9.09C40.6584 9.61667 40.5318 10.0733 40.2784 10.46C40.0251 10.84 39.6651 11.1333 39.1984 11.34C38.7384 11.54 38.1884 11.64 37.5484 11.64H35.4484L36.3284 10.81V13.5H34.3484ZM38.6784 13.5L36.9384 10.95H39.0484L40.7984 13.5H38.6784ZM36.3284 11.02L35.4484 10.11H37.4284C37.8418 10.11 38.1484 10.02 38.3484 9.84C38.5551 9.66 38.6584 9.41 38.6584 9.09C38.6584 8.76333 38.5551 8.51 38.3484 8.33C38.1484 8.15 37.8418 8.06 37.4284 8.06H35.4484L36.3284 7.15V11.02ZM41.7508 13.5V6.5H43.7308V13.5H41.7508ZM48.6395 13.64C48.0861 13.64 47.5728 13.5533 47.0995 13.38C46.6261 13.2 46.2161 12.9467 45.8695 12.62C45.5295 12.2933 45.2628 11.91 45.0695 11.47C44.8761 11.0233 44.7795 10.5333 44.7795 10C44.7795 9.46667 44.8761 8.98 45.0695 8.54C45.2628 8.09333 45.5328 7.70667 45.8795 7.38C46.2261 7.05333 46.6361 6.80333 47.1095 6.63C47.5895 6.45 48.1128 6.36 48.6795 6.36C49.3395 6.36 49.9295 6.47 50.4495 6.69C50.9695 6.91 51.3995 7.22667 51.7395 7.64L50.4795 8.78C50.2395 8.52 49.9795 8.32667 49.6995 8.2C49.4261 8.06667 49.1195 8 48.7795 8C48.4795 8 48.2061 8.04667 47.9595 8.14C47.7128 8.23333 47.5028 8.37 47.3295 8.55C47.1561 8.72333 47.0195 8.93333 46.9195 9.18C46.8261 9.42 46.7795 9.69333 46.7795 10C46.7795 10.2933 46.8261 10.5633 46.9195 10.81C47.0195 11.0567 47.1561 11.27 47.3295 11.45C47.5028 11.6233 47.7095 11.76 47.9495 11.86C48.1961 11.9533 48.4661 12 48.7595 12C49.0528 12 49.3395 11.9533 49.6195 11.86C49.8995 11.76 50.1828 11.5933 50.4695 11.36L51.5795 12.75C51.1795 13.0367 50.7161 13.2567 50.1895 13.41C49.6628 13.5633 49.1461 13.64 48.6395 13.64ZM49.8295 12.49V9.85H51.5795V12.75L49.8295 12.49ZM52.8348 13.5V6.5H54.8148V13.5H52.8348ZM56.2234 13.5V6.5H57.8534L61.7134 11.16H60.9434V6.5H62.8834V13.5H61.2534L57.3934 8.84H58.1634V13.5H56.2234ZM63.4401 13.5L66.5301 6.5H68.4801L71.5801 13.5H69.5201L67.1001 7.47H67.8801L65.4601 13.5H63.4401ZM65.1301 12.14L65.6401 10.68H69.0601L69.5701 12.14H65.1301ZM72.1414 13.5V6.5H74.1214V11.93H77.4614V13.5H72.1414ZM80.6854 13.64C80.1121 13.64 79.5587 13.57 79.0254 13.43C78.4987 13.2833 78.0687 13.0967 77.7354 12.87L78.3854 11.41C78.6987 11.61 79.0587 11.7767 79.4654 11.91C79.8787 12.0367 80.2887 12.1 80.6954 12.1C80.9687 12.1 81.1887 12.0767 81.3554 12.03C81.5221 11.9767 81.6421 11.91 81.7154 11.83C81.7954 11.7433 81.8354 11.6433 81.8354 11.53C81.8354 11.37 81.7621 11.2433 81.6154 11.15C81.4687 11.0567 81.2787 10.98 81.0454 10.92C80.8121 10.86 80.5521 10.8 80.2654 10.74C79.9854 10.68 79.7021 10.6033 79.4154 10.51C79.1354 10.4167 78.8787 10.2967 78.6454 10.15C78.4121 9.99667 78.2221 9.8 78.0754 9.56C77.9287 9.31333 77.8554 9.00333 77.8554 8.63C77.8554 8.21 77.9687 7.83 78.1954 7.49C78.4287 7.15 78.7754 6.87667 79.2354 6.67C79.6954 6.46333 80.2687 6.36 80.9554 6.36C81.4154 6.36 81.8654 6.41333 82.3054 6.52C82.7521 6.62 83.1487 6.77 83.4954 6.97L82.8854 8.44C82.5521 8.26 82.2221 8.12667 81.8954 8.04C81.5687 7.94667 81.2521 7.9 80.9454 7.9C80.6721 7.9 80.4521 7.93 80.2854 7.99C80.1187 8.04333 79.9987 8.11667 79.9254 8.21C79.8521 8.30333 79.8154 8.41 79.8154 8.53C79.8154 8.68333 79.8854 8.80667 80.0254 8.9C80.1721 8.98667 80.3621 9.06 80.5954 9.12C80.8354 9.17333 81.0954 9.23 81.3754 9.29C81.6621 9.35 81.9454 9.42667 82.2254 9.52C82.5121 9.60667 82.7721 9.72667 83.0054 9.88C83.2387 10.0267 83.4254 10.2233 83.5654 10.47C83.7121 10.71 83.7854 11.0133 83.7854 11.38C83.7854 11.7867 83.6687 12.1633 83.4354 12.51C83.2087 12.85 82.8654 13.1233 82.4054 13.33C81.9521 13.5367 81.3787 13.64 80.6854 13.64Z" fill="white"/>
</svg>
