<svg width="127" height="24" viewBox="0 0 127 24" fill="none" xmlns="http://www.w3.org/2000/svg">
<rect width="24" height="24" rx="12" fill="white"/>
<path d="M17.1485 16.4632H6.84912V18.5455H17.1485V16.4632Z" fill="#E62070"/>
<path d="M16.3135 5.45453L14.6731 11.0223L13.0203 5.4707L10.9789 5.46665L9.29668 11.0223L7.68393 5.45453H5.45459L8.08133 14.5256H10.4728L11.9902 9.51397L13.4818 14.5256H15.8733L18.5455 5.45453H16.3135Z" fill="#121619"/>
<path d="M30.3355 17V7.2H33.1075V17H30.3355ZM35.0796 17V7.2H37.3616L42.7656 13.724H41.6876V7.2H44.4036V17H42.1216L36.7176 10.476H37.7956V17H35.0796ZM49.8029 17.196C49.0002 17.196 48.2256 17.098 47.4789 16.902C46.7416 16.6967 46.1396 16.4353 45.6729 16.118L46.5829 14.074C47.0216 14.354 47.5256 14.5873 48.0949 14.774C48.6736 14.9513 49.2476 15.04 49.8169 15.04C50.1996 15.04 50.5076 15.0073 50.7409 14.942C50.9742 14.8673 51.1422 14.774 51.2449 14.662C51.3569 14.5407 51.4129 14.4007 51.4129 14.242C51.4129 14.018 51.3102 13.8407 51.1049 13.71C50.8996 13.5793 50.6336 13.472 50.3069 13.388C49.9802 13.304 49.6162 13.22 49.2149 13.136C48.8229 13.052 48.4262 12.9447 48.0249 12.814C47.6329 12.6833 47.2736 12.5153 46.9469 12.31C46.6202 12.0953 46.3542 11.82 46.1489 11.484C45.9436 11.1387 45.8409 10.7047 45.8409 10.182C45.8409 9.594 45.9996 9.062 46.3169 8.586C46.6436 8.11 47.1289 7.72733 47.7729 7.438C48.4169 7.14867 49.2196 7.004 50.1809 7.004C50.8249 7.004 51.4549 7.07867 52.0709 7.228C52.6962 7.368 53.2516 7.578 53.7369 7.858L52.8829 9.916C52.4162 9.664 51.9542 9.47733 51.4969 9.356C51.0396 9.22533 50.5962 9.16 50.1669 9.16C49.7842 9.16 49.4762 9.202 49.2429 9.286C49.0096 9.36067 48.8416 9.46333 48.7389 9.594C48.6362 9.72467 48.5849 9.874 48.5849 10.042C48.5849 10.2567 48.6829 10.4293 48.8789 10.56C49.0842 10.6813 49.3502 10.784 49.6769 10.868C50.0129 10.9427 50.3769 11.022 50.7689 11.106C51.1702 11.19 51.5669 11.2973 51.9589 11.428C52.3602 11.5493 52.7242 11.7173 53.0509 11.932C53.3776 12.1373 53.6389 12.4127 53.8349 12.758C54.0402 13.094 54.1429 13.5187 54.1429 14.032C54.1429 14.6013 53.9796 15.1287 53.6529 15.614C53.3356 16.09 52.8549 16.4727 52.2109 16.762C51.5762 17.0513 50.7736 17.196 49.8029 17.196ZM55.4234 17V7.2H59.9034C60.7994 7.2 61.5694 7.34467 62.2134 7.634C62.8667 7.92333 63.3707 8.34333 63.7254 8.894C64.08 9.43533 64.2574 10.0793 64.2574 10.826C64.2574 11.5633 64.08 12.2027 63.7254 12.744C63.3707 13.2853 62.8667 13.7053 62.2134 14.004C61.5694 14.2933 60.7994 14.438 59.9034 14.438H56.9634L58.1954 13.234V17H55.4234ZM58.1954 13.528L56.9634 12.254H59.7354C60.314 12.254 60.7434 12.128 61.0234 11.876C61.3127 11.624 61.4574 11.274 61.4574 10.826C61.4574 10.3687 61.3127 10.014 61.0234 9.762C60.7434 9.51 60.314 9.384 59.7354 9.384H56.9634L58.1954 8.11V13.528ZM65.6089 17V7.2H68.3809V17H65.6089ZM70.353 17V7.2H74.833C75.729 7.2 76.499 7.34467 77.143 7.634C77.7964 7.92333 78.3004 8.34333 78.655 8.894C79.0097 9.43533 79.187 10.0793 79.187 10.826C79.187 11.5633 79.0097 12.2027 78.655 12.744C78.3004 13.276 77.7964 13.6867 77.143 13.976C76.499 14.256 75.729 14.396 74.833 14.396H71.893L73.125 13.234V17H70.353ZM76.415 17L73.979 13.43H76.933L79.383 17H76.415ZM73.125 13.528L71.893 12.254H74.665C75.2437 12.254 75.673 12.128 75.953 11.876C76.2424 11.624 76.387 11.274 76.387 10.826C76.387 10.3687 76.2424 10.014 75.953 9.762C75.673 9.51 75.2437 9.384 74.665 9.384H71.893L73.125 8.11V13.528ZM79.5403 17L83.8663 7.2H86.5963L90.9363 17H88.0523L84.6643 8.558H85.7563L82.3683 17H79.5403ZM81.9063 15.096L82.6203 13.052H87.4083L88.1223 15.096H81.9063ZM93.316 17V9.398H90.306V7.2H99.084V9.398H96.088V17H93.316ZM100.117 17V7.2H102.889V17H100.117ZM109.803 17.196C109.019 17.196 108.296 17.07 107.633 16.818C106.97 16.566 106.392 16.2113 105.897 15.754C105.412 15.2873 105.034 14.746 104.763 14.13C104.492 13.514 104.357 12.8373 104.357 12.1C104.357 11.3627 104.492 10.686 104.763 10.07C105.034 9.454 105.412 8.91733 105.897 8.46C106.392 7.99333 106.97 7.634 107.633 7.382C108.296 7.13 109.019 7.004 109.803 7.004C110.596 7.004 111.32 7.13 111.973 7.382C112.636 7.634 113.21 7.99333 113.695 8.46C114.18 8.91733 114.558 9.454 114.829 10.07C115.109 10.686 115.249 11.3627 115.249 12.1C115.249 12.8373 115.109 13.5187 114.829 14.144C114.558 14.76 114.18 15.2967 113.695 15.754C113.21 16.2113 112.636 16.566 111.973 16.818C111.32 17.07 110.596 17.196 109.803 17.196ZM109.803 14.9C110.176 14.9 110.522 14.8347 110.839 14.704C111.166 14.5733 111.446 14.3867 111.679 14.144C111.922 13.892 112.108 13.5933 112.239 13.248C112.379 12.9027 112.449 12.52 112.449 12.1C112.449 11.6707 112.379 11.288 112.239 10.952C112.108 10.6067 111.922 10.3127 111.679 10.07C111.446 9.818 111.166 9.62667 110.839 9.496C110.522 9.36533 110.176 9.3 109.803 9.3C109.43 9.3 109.08 9.36533 108.753 9.496C108.436 9.62667 108.156 9.818 107.913 10.07C107.68 10.3127 107.493 10.6067 107.353 10.952C107.222 11.288 107.157 11.6707 107.157 12.1C107.157 12.52 107.222 12.9027 107.353 13.248C107.493 13.5933 107.68 13.892 107.913 14.144C108.156 14.3867 108.436 14.5733 108.753 14.704C109.08 14.8347 109.43 14.9 109.803 14.9ZM116.701 17V7.2H118.983L124.387 13.724H123.309V7.2H126.025V17H123.743L118.339 10.476H119.417V17H116.701Z" fill="white"/>
</svg>
