<svg width="10" height="10" viewBox="0 0 10 10" fill="none" xmlns="http://www.w3.org/2000/svg">
<path d="M8.25 8H1.75C1.6125 8 1.5 8.1125 1.5 8.25V8.75C1.5 8.8875 1.6125 9 1.75 9H8.25C8.3875 9 8.5 8.8875 8.5 8.75V8.25C8.5 8.1125 8.3875 8 8.25 8ZM9.25 3C8.83594 3 8.5 3.33594 8.5 3.75C8.5 3.86094 8.525 3.96406 8.56875 4.05938L7.4375 4.7375C7.19688 4.88125 6.88594 4.8 6.74687 4.55625L5.47344 2.32812C5.64062 2.19062 5.75 1.98438 5.75 1.75C5.75 1.33594 5.41406 1 5 1C4.58594 1 4.25 1.33594 4.25 1.75C4.25 1.98438 4.35938 2.19062 4.52656 2.32812L3.25312 4.55625C3.11406 4.8 2.80156 4.88125 2.5625 4.7375L1.43281 4.05938C1.475 3.96563 1.50156 3.86094 1.50156 3.75C1.50156 3.33594 1.16562 3 0.751562 3C0.3375 3 0 3.33594 0 3.75C0 4.16406 0.335938 4.5 0.75 4.5C0.790625 4.5 0.83125 4.49375 0.870313 4.4875L2 7.5H8L9.12969 4.4875C9.16875 4.49375 9.20938 4.5 9.25 4.5C9.66406 4.5 10 4.16406 10 3.75C10 3.33594 9.66406 3 9.25 3Z" fill="#7C17FF"/>
</svg>
